<svg id="Layer_1" data-name="Layer 1" xmlns="http://www.w3.org/2000/svg" viewBox="0 0 2588.34 363.06">
    <defs>
        <style>
            .cls-1,
            .cls-4 {
                fill: #fff;
            }

            .cls-2 {
                fill: #becfe1;
            }

            .cls-3 {
                fill: #bdcfe2;
            }

            .cls-4 {
                font-size: 225.29px;
                font-family: BanglaMN, Bangla MN;
            }
        </style>
    </defs>
    <path class="cls-1"
        d="M-3147.42-1595.75c0,.36.06.72.06,1.09,0,13.48,0,27,0,40.44,0,8.86.13,17.72.21,26.59a8.52,8.52,0,0,1-1.44,4.16c-.23.42-.33.92-.56,1.35-1.45,2.79-2.83,5.63-4.42,8.34-2.07,3.51-4.2,7-6.5,10.34q-3.82,5.57-8,10.87c-2.08,2.64-4.39,5.1-6.65,7.58s-4.61,5.1-7.08,7.49c-3.45,3.33-7,6.59-10.62,9.73a106,106,0,0,1-8.35,6.59c-3.53,2.5-7.17,4.86-10.86,7.12a74.73,74.73,0,0,1-12.95,6.43c-2.22.82-4.38,1.82-6.63,2.53-1.75.56-3.6.8-5.4,1.2a3.49,3.49,0,0,0-.64.39c1.31.27,2.39.43,3.43.71,2.81.73,5.64,1.38,8.39,2.3a76.23,76.23,0,0,1,8.15,3.22c3.61,1.69,7.13,3.56,10.66,5.41a45.65,45.65,0,0,1,4.45,2.68c3.05,2.08,6.1,4.18,9.05,6.41,2.55,1.93,5,4,7.42,6.12,3.7,3.34,7.32,6.79,10.91,10.25,1.13,1.08,2.07,2.34,3.11,3.51,1.38,1.55,2.84,3,4.16,4.63,1.63,2,3.16,4.06,4.73,6.1.55.72,1.09,1.44,1.6,2.18,1.68,2.4,3.44,4.74,5,7.23,2,3.31,3.84,6.76,5.81,10.11,1.81,3.08,3,6.45,4.47,9.66a12.61,12.61,0,0,1,1.24,5.78c-.05,2.68,0,5.36,0,8,.07,11.25.11,22.51.23,33.77.09,7.68.29,15.35.41,23a1.74,1.74,0,0,1-.55,1.06,15.21,15.21,0,0,1-.31-1.94c-.14-1.22-.29-2.45-.39-3.71a2,2,0,0,0-.06-.5c-.08-1-.17-1.86-.24-2.82-.06-.17-.13-.28-.2-.48-.16-1.35-.32-2.6-.46-3.93-.07-.17-.14-.28-.22-.48-.14-.83-.3-1.57-.44-2.31a171.78,171.78,0,0,0-5.48-21.55,151.6,151.6,0,0,0-10.81-25.81q-4.09-7.45-8.65-14.65a119.16,119.16,0,0,0-13.88-17.68,119,119,0,0,0-19.35-16.84,102.3,102.3,0,0,0-23.5-12.26,79,79,0,0,0-19.71-4.48,3.44,3.44,0,0,0-1.25.38l.64,1.14q.09,10.21.2,20.44.11,9.16.22,18.35c.07,5.27.11,10.54.23,15.81.1,4.41.26,8.82.44,13.23.12,2.9.33,5.8.5,8.72H-3253c-.51,0-1-.07-1.52-.08-3.77-.08-7.54-.14-11.3-.23-2.11,0-4.23-.13-6.34-.22-4.29-.17-8.58-.36-13-.55.15-2.63.3-5.3.46-8,0-.15,0-.29,0-.44.08-3.1.12-6.21.24-9.31.05-1.24.62-2.55.36-3.69a34.57,34.57,0,0,1-.29-10.44c.76-9.37.13-18.73.34-28.09.16-7,.15-14.07.24-21.1.05-3.66.23-7.31.19-11a114.32,114.32,0,0,0-.49-12c-.41-3.58-.52-7.14-.6-10.72s-.28-7-.43-10.58-.27-6.91-.44-10.36c-.2-3.78-.45-7.55-.65-11.33-.11-2-.17-4-.23-6-.08-3.18-.12-6.36-.23-9.54-.11-3.45-.29-6.9-.43-10.36s-.09-7.22-.5-10.79a105.93,105.93,0,0,1-.61-11c0-1.64-.14-3.27-.21-4.91-.15-3.71-.29-7.42-.44-11.13-.15-3.49-.32-7-.44-10.47s.1-6.9-.29-10.3a104.62,104.62,0,0,1-.61-11c0-1.52-.11-3-.21-4.57s-.26-3.16-.44-4.74c-.09-.75.24-1.08.94-1.07,1,0,2.09.05,3.14.09.35,0,.7.12,1.05.12,9.82.08,19.65.14,29.47.23,4.54,0,9.08.15,13.61.21.86,0,1.23.28,1.17,1.2-.18,3.12-.3,6.25-.45,9.37-.07,1.34-.17,2.68-.22,4-.09,2.36-.13,4.74-.23,7.1-.13,3.24-.28,6.47-.43,9.7-.14,2.94-.28,5.89-.45,8.82-.2,3.66-.45,7.31-.65,11-.17,3.27-.3,6.54-.44,9.81-.16,3.64-.3,7.28-.45,10.91-.07,1.93-.12,3.86-.22,5.79-.21,4.14-.44,8.27-.66,12.4q-.22,4.58-.44,9.15c-.15,3.42-.28,6.84-.44,10.25-.13,2.8-.27,5.59-.45,8.38-.15,2.37-.38,4.74-.64,7.28-.24.82-.64,1.63.48,1.73a7.65,7.65,0,0,0,2.27-.25,86,86,0,0,0,20.77-7.26,95.59,95.59,0,0,0,15.31-9.25c4.17-3.15,8.25-6.43,12.15-9.91a121.23,121.23,0,0,0,8.7-8.86c2.71-3,5.4-6,7.8-9.21,3.22-4.3,6.25-8.76,9.16-13.28a144,144,0,0,0,10.47-19.7,136.48,136.48,0,0,0,7.47-20.87c1.28-4.91,2.47-9.85,3.44-14.83.74-3.86,1.06-7.8,1.61-11.7A7.46,7.46,0,0,1-3147.42-1595.75Z"
        transform="translate(3365.19 1596.64)" />
    <path class="cls-1"
        d="M-3125.36-1547.53l.06-.74h-20.51v-8.15c0-.64,0-1.24.93-.79a2.34,2.34,0,0,0,.88,0h13.44c3.16,0,6.32,0,9.48,0q7,.07,14,.22c3.29.06,6.57.14,9.86.22l17.52.45a9.57,9.57,0,0,1,1.41.29c-.33,1.42-.64,2.79-1,4.16a2,2,0,0,0-.06.43c-.08,1.56-.09,3.13-.24,4.68-.24,2.68-.58,5.36-.85,8-.12,1.12-.17,2.24-.23,3.36-.09,1.6-.07,3.21-.25,4.8s-.52,3-.79,4.47a5,5,0,0,0-.07.54c-.15,2.9-.23,5.81-.46,8.71-.19,2.42-.56,4.83-.85,7.25a1.62,1.62,0,0,0,0,.22c-.22,2.8-.43,5.6-.66,8.39-.29,3.38-.58,6.76-.89,10.13-.28,3.12-.55,6.24-.89,9.36-.31,2.92-.72,5.82-1.08,8.74-.1.86-.17,1.72-.22,2.59-.16,2.75-.23,5.51-.48,8.26a39.53,39.53,0,0,1-.83,4.26,4.85,4.85,0,0,0,0,.66c-.15,2.79-.25,5.59-.45,8.38-.24,3.23-.52,6.47-.89,9.69-.28,2.45-.74,4.87-1.07,7.31-.15,1.15-.16,2.31-.23,3.47-.15,2.53-.22,5.08-.46,7.6-.37,3.83-.88,7.64-1.3,11.46-.19,1.78-.32,3.58-.44,5.38-.24,3.28-.42,6.57-.68,9.86-.17,2.19-.4,4.37-.66,6.54-.33,2.73-.76,5.44-1.07,8.17-.17,1.44-.12,2.9-.25,4.35-.26,2.86-.46,5.74-.91,8.58a76,76,0,0,1-1.76,8.19,58.46,58.46,0,0,1-2.21,6.28,76.84,76.84,0,0,1-3.13,7.06,41.19,41.19,0,0,1-3.61,5.64q-3.36,4.47-7,8.75a32.27,32.27,0,0,1-7.64,6.36c-2.15,1.34-4.15,3-6.4,4.11a26.4,26.4,0,0,1-8.07,3.08,35.18,35.18,0,0,0-4.06,1.36,7.57,7.57,0,0,1-2.13,0c-.08,0-.2-.2-.24-.32a1.58,1.58,0,0,1,0-.44l-.21-20.77c0-.1,0-.21.06-.44,1.81.46,3.08-.77,4.63-1.45a22.88,22.88,0,0,0,8-6.41,35.06,35.06,0,0,0,5.8-9.74,55,55,0,0,0,2.37-8.46,36.81,36.81,0,0,0,.61-11.66,9.24,9.24,0,0,1,.14-1c0-3.16,0-6.32,0-9.48s-.15-6.13-.2-9.19c0-2.13,0-4.26,0-6.39,0-1.09-.2-2.17-.19-3.25s.24-2.4.18-3.58c-.14-2.55-.47-5.1-.61-7.65-.07-1.33.13-2.68.15-4,0-.71-.16-1.43-.17-2.14-.09-5.16-.12-10.32-.25-15.48-.05-2.47-.31-4.93-.4-7.39,0-.86.2-1.73.19-2.59,0-2.7,0-5.42-.27-8.09-.21-1.84-.14-3.64-.17-5.46q-.18-8.76-.44-17.52c-.08-2.36-.3-4.7-.42-7,0-.49.2-1,.2-1.49,0-3-.13-6-.22-9-.05-2-.13-4-.22-6-.13-3.16-.32-6.32-.42-9.48-.07-2,0-4,0-6.06q-.09-6.69-.22-13.39c-.06-3.69-.12-7.38-.22-11.07-.05-1.71-.21-3.42-.32-5.21"
        transform="translate(3365.19 1596.64)" />
    <path class="cls-1"
        d="M-3189-1337.49c.36,1.68.8,3.36,1.08,5a91.39,91.39,0,0,1,1.13,15.59c0,1.42.09,1.4-1.4,1.43-.9,0-1.8.21-2.7.2-3.28,0-6.62.2-9.84-.31-3-.47-6-.17-8.92-.32s-5.84-.17-8.76-.24l-8.87-.22-8.76-.22-8.87-.22-9-.22-8.65-.22-9-.22a85.81,85.81,0,0,1-8.65-.27c-5.2-.66-10.52-.48-15.58-2.16-2-.66-4-1.26-6-2a37.1,37.1,0,0,1-5.16-2.14c-2.85-1.57-5.59-3.34-8.37-5-1.57-1-3.2-1.83-4.67-2.93-2.39-1.8-4.68-3.75-7-5.64-1.32-1.08-2.66-2.13-3.91-3.27s-2.65-2.6-3.94-3.92c-2-2-4-4.07-5.94-6.18s-3.65-4.18-5.44-6.28c-1.52-1.79-3.08-3.55-4.49-5.42-1.54-2-2.93-4.2-4.36-6.31s-3-4.37-4.39-6.62c-1.09-1.77-2-3.65-3-5.48a8.17,8.17,0,0,1-.61-1.22,13.14,13.14,0,0,1-1.12-3.49c-.2-4.27-.19-8.55-.27-12.83-.07-4.57.18-9.18-.29-13.71-.7-6.76-.12-13.5-.36-20.24-.11-3.25-.13-6.5,0-9.78,1.12.09,1.63.46,1.61,1.58a19.9,19.9,0,0,0,.44,3.58,157.17,157.17,0,0,0,5.56,22.44,126.23,126.23,0,0,0,8.6,20.55c2.59,4.76,5.24,9.5,8.14,14.08a112.21,112.21,0,0,0,11.83,15.24,103.57,103.57,0,0,0,13.06,12.07,78.2,78.2,0,0,0,17,10.17,42.85,42.85,0,0,0,7.07,2.66c2.89.67,5.91.83,8.89,1.28a4.25,4.25,0,0,0,1,.1c5.84.07,11.57.14,17.35.27a5.11,5.11,0,0,0,.94,0c5.84.06,11.58.13,17.36.26a5,5,0,0,0,.93,0c6.21.07,12.31.14,18.47.27a5.47,5.47,0,0,0,1,.12c8.92.09,17.75.17,26.57.27,3.14,0,6.29.14,9.43.19A3.36,3.36,0,0,0-3189-1337.49Z"
        transform="translate(3365.19 1596.64)" />
    <path class="cls-2"
        d="M-3145.63-1300.2c.08.89.17,1.77.2,2.78a1.2,1.2,0,0,0,.07.5c.14,1.23.29,2.46.43,3.68l.22,1.93c-3.57.18-7.15.32-10.73.33-9.11,0-18.21,0-27.32,0-1.4,0-1.4,0-1.4-1.45a16.56,16.56,0,0,1,0-3.73c.85-3.7.34-7.42.33-11.11,0-3.26-.54-6.51-.83-9.76-.09-1-.16-1.94-.23-2.91-.14-2-.22-4.11-.44-6.15s-.59-4-.88-5.92-.5-4.12-.88-6.16c-.46-2.54-1.05-5.07-1.6-7.59-.33-1.56-.6-3.13-1.05-4.65-.85-2.82-1.79-5.61-2.72-8.4s-1.77-5.42-2.79-8.08-2.14-5.46-3.45-8.07c-1.46-2.93-3.1-5.77-4.81-8.56s-3.52-5.53-5.42-8.19a51.72,51.72,0,0,0-3.87-4.62c-2-2.19-3.88-4.43-6-6.44a58.27,58.27,0,0,0-9-7.21c-1.49-.93-2.86-2.08-4.39-2.94-2-1.1-4.08-2-6.15-3-1.38-.63-2.8-1.14-4.2-1.71a15.37,15.37,0,0,0-6.29-1.61,6.76,6.76,0,0,1-.73-1.13,3.44,3.44,0,0,1,1.25-.38,79,79,0,0,1,19.71,4.48,102.3,102.3,0,0,1,23.5,12.26,119,119,0,0,1,19.35,16.84,119.16,119.16,0,0,1,13.88,17.68q4.55,7.18,8.65,14.65a151.6,151.6,0,0,1,10.81,25.81,171.78,171.78,0,0,1,5.48,21.55c.14.74.3,1.48.4,2.35a1,1,0,0,0,.25.51c.15,1.26.31,2.51.42,3.89A1.1,1.1,0,0,0-3145.63-1300.2Z"
        transform="translate(3365.19 1596.64)" />
    <path class="cls-2"
        d="M-3147.45-1595.83a14.5,14.5,0,0,0-.54,1.61c-.55,3.9-.87,7.84-1.61,11.7-1,5-2.16,9.92-3.44,14.83a136.48,136.48,0,0,1-7.47,20.87,144,144,0,0,1-10.47,19.7c-2.91,4.52-5.94,9-9.16,13.28-2.4,3.22-5.09,6.24-7.8,9.21a121.23,121.23,0,0,1-8.7,8.86c-3.9,3.48-8,6.76-12.15,9.91a95.59,95.59,0,0,1-15.31,9.25,86,86,0,0,1-20.77,7.26,7.65,7.65,0,0,1-2.27.25c-1.12-.1-.72-.91-.51-1.65,1.39-.44,2.77-.73,4.09-1.2,1.78-.63,3.5-1.43,5.26-2.11a38.09,38.09,0,0,0,8.61-4.88c2.2-1.62,4.41-3.22,6.48-5a54.73,54.73,0,0,0,4-4.19c1.54-1.65,3.2-3.21,4.6-5,1.75-2.22,3.23-4.65,4.93-6.92a79.38,79.38,0,0,0,7-11.77c1.54-3,2.9-6.16,4.2-9.3s2.39-6.14,3.5-9.23c.93-2.58,1.87-5.17,2.59-7.82.81-3,1.39-6.06,2.06-9.1.48-2.14,1-4.27,1.39-6.42.34-1.82.53-3.67.8-5.5.21-1.41.46-2.8.66-4.21.24-1.74.49-3.48.67-5.23s.36-3.66.43-5.49c.07-2.12,0-4.24,0-6.36,0-4.18,0-8.36,0-12.54,0-1-.17-1.93-.27-3h37.31A12.1,12.1,0,0,1-3147.45-1595.83Z"
        transform="translate(3365.19 1596.64)" />
    <path class="cls-3"
        d="M-3264.6-1338.36c-5.74-.07-11.47-.14-17.36-.27a7.22,7.22,0,0,0-1-.11c-3-.38-6-.54-8.87-1.21a42.85,42.85,0,0,1-7.07-2.66,78.2,78.2,0,0,1-17-10.17,103.57,103.57,0,0,1-13.06-12.07,112.21,112.21,0,0,1-11.83-15.24c-2.9-4.58-5.55-9.32-8.14-14.08a126.23,126.23,0,0,1-8.6-20.55,157.17,157.17,0,0,1-5.56-22.44,19.9,19.9,0,0,1-.44-3.58c0-1.12-.49-1.49-1.52-1.62.34-.63.92-.7,1.62-.69,2.41,0,4.82,0,7.23,0,1.59,0,3.17-.14,4.93-.14,1.08,0,2,0,2.91,0a1,1,0,0,1,.43,0c1.2.09,2.25.14,3.29.12,1.26,0,2.51-.11,3.77-.16,1,0,2.06,0,3.22,0a.44.44,0,0,0,.3,0h5.67c0,1.88,0,3.71-.05,5.69-.07,1.41-.12,2.68-.1,4,0,1,.11,2.08.17,3.11.09,2.43.17,4.85.28,7.42.05.21.09.26.16.3a1.08,1.08,0,0,1,0,.4,2.49,2.49,0,0,0,0,.7,1,1,0,0,1,0,.43c.12,1.78.31,3.43.5,5.08.28,1.49.59,3,.84,4.47.09.53,0,1.09.08,1.62.41,2.21.82,4.41,1.31,6.6.63,2.87,1.22,5.76,2,8.58.75,2.62,1.75,5.17,2.67,7.73.85,2.33,1.63,4.69,2.63,7,.87,2,2,3.87,3,5.79s2,4,3.14,5.91c1.34,2.19,2.84,4.29,4.32,6.39a59.14,59.14,0,0,0,9.54,10.57,63.1,63.1,0,0,0,7.1,5.13,42.38,42.38,0,0,0,5,2.52,21.1,21.1,0,0,0,8.58,1.77c3.36.11,6.72.11,10.08.25,3.69.16,7.38.42,11.08.64,1.41.08,2.83.16,4.24.21,3.94.17,7.88.31,11.82.47l10.15.44c3.31.14,6.63.26,9.94.43,2.24.11,4.48.31,6.73.42,3.57.18,7.14.32,10.71.47,3.31.14,6.63.26,9.94.43,2.1.11,4.19.28,6.29.44.16,0,.3.16.49.33a1.66,1.66,0,0,1-.87.3c-3.14,0-6.29-.16-9.43-.19-8.82-.1-17.65-.18-26.59-.34a4.94,4.94,0,0,0-1-.11c-6.11-.07-12.21-.14-18.46-.27a5.18,5.18,0,0,0-.94,0c-5.73-.07-11.47-.14-17.35-.26A4.4,4.4,0,0,0-3264.6-1338.36Z"
        transform="translate(3365.19 1596.64)" />
    <path class="cls-1"
        d="M-3087.63-1558.74l-16.47-.22q-6.46-.09-12.94-.22c-2.41,0-4.82-.14-7.22-.22-1.06,0-1.63-.74-1.94-2.26-.58-2.86-1.18-5.7-1.76-8.56-.53-2.57-1-5.15-1.55-7.72-.48-2.17-1.07-4.32-1.56-6.48a16.94,16.94,0,0,1-.39-2.65c0-.31.18-.89.35-.91a1.81,1.81,0,0,1,1.31.22c3,2.36,5.86,4.77,8.79,7.17a1.9,1.9,0,0,1,.34,2.58,9,9,0,0,0-.81,7,12,12,0,0,0,1.8,3.8c1.81,2.42,3.81,2.79,6.7,1.86a5.27,5.27,0,0,0,2.18-1.71,9.71,9.71,0,0,0,1.81-9.24,8.78,8.78,0,0,0-2.11-3.64,1.79,1.79,0,0,1-.05-2.68c1.67-2.2,3-4.64,4.57-6.94,1.39-2.1,2.84-4.16,4.28-6.23.44-.63,1.05-.63,1.44,0,.81,1.36,1.54,2.77,2.34,4.14.65,1.13,1.36,2.23,2,3.36,1.15,1.94,2.28,3.89,3.43,5.83a6.19,6.19,0,0,0,.55.79c1,1.21,1,2-.15,3.06a6.85,6.85,0,0,0-1.76,4.45,9.69,9.69,0,0,0,.83,5.57c1.57,3.24,4.09,5,7.63,3.52a6.88,6.88,0,0,0,2.71-2.67c2-3.2,1.87-6.55.3-9.91-.56-1.18-.38-1.57.83-2.47,1.43-1.06,2.78-2.23,4.18-3.34,1.05-.82,2.12-1.62,3.17-2.44a16.85,16.85,0,0,1,1.61-1.32c.78-.47,1.27-.19,1.15.7-.19,1.44-.54,2.86-.86,4.28-.57,2.53-1.15,5.05-1.76,7.56-1,4.16-2,8.31-3,12.46a15.25,15.25,0,0,0-.26,2.14c-.06.84-.35,1.29-1.33,1.27C-3082-1558.77-3084.76-1558.74-3087.63-1558.74Z"
        transform="translate(3365.19 1596.64)" />
    <path class="cls-1"
        d="M-3286.64-1305.73c.07-3.25.16-6.39.21-9.53,0-.62.23-.85.85-.84,4.83.09,9.66.15,14.49.24,1.92,0,3.85.17,5.78.2,5.78.1,11.57.15,17.35.24a4,4,0,0,1,1.58.26,1.31,1.31,0,0,1,.49,1c.11,2.84.13,5.69.25,8.53.19,4.51.43,9,.65,13.5,0,.26,0,.52,0,.8h-42.16C-3287-1296.18-3286.81-1300.9-3286.64-1305.73Z"
        transform="translate(3365.19 1596.64)" /><text class="cls-4" transform="translate(421.98 250.79)">RATAN MATKA
        </text>
</svg>