<?xml version="1.0" encoding="UTF-8"?>
<svg version="1.1" xmlns="http://www.w3.org/2000/svg" width="500" height="500">
<path d="M0 0 C165 0 330 0 500 0 C500 165 500 330 500 500 C335 500 170 500 0 500 C0 335 0 170 0 0 Z " fill="#E8E9EB" transform="translate(0,0)"/>
<path d="M0 0 C7.73760691 0.04193291 15.47450982 0.11451445 23.21166992 0.20751953 C25.83888381 0.23559047 28.46617997 0.25687333 31.09350586 0.27099609 C34.88958442 0.29261796 38.684688 0.33936842 42.48046875 0.390625 C43.63830368 0.39185364 44.79613861 0.39308228 45.98905945 0.39434814 C57.43422961 0.59581845 69.31516648 3.04909608 78 11 C85.21545797 19.7714341 85.95226363 27.90120324 85 39 C81.74239931 51.47529591 73.65890858 59.96186066 64 68 C65.31679824 71.46375188 66.7655462 74.05458362 69 77 C69 77.66 69 78.32 69 79 C62.92758286 81.09050426 57.43425452 82.98149645 51 82 C50.27039063 81.02675781 49.54078125 80.05351562 48.7890625 79.05078125 C46.7199068 76.39752301 45.33842284 75.52252901 42.01171875 74.9765625 C40.57279885 74.83201347 39.13084082 74.71528942 37.6875 74.625 C36.94693359 74.55667969 36.20636719 74.48835938 35.44335938 74.41796875 C33.63094313 74.25426664 31.81558231 74.12374122 30 74 C30 77.3 30 80.6 30 84 C27.9377952 84.054348 25.87517184 84.09294961 23.8125 84.125 C22.66394531 84.14820313 21.51539063 84.17140625 20.33203125 84.1953125 C17.04947587 84.00290011 14.98146607 83.28507635 12 82 C11.97482674 77.98389666 11.95692245 73.96782537 11.94506836 69.95166016 C11.93770992 67.93260071 11.92498838 65.91356303 11.91210938 63.89453125 C11.89660754 57.60078436 11.99203435 51.37233168 12.5 45.09375 C13.15243974 36.93217458 13.11018893 28.80590123 13.0625 20.625 C13.05746731 19.09895983 13.05290758 17.57291802 13.04882812 16.046875 C13.03798019 12.36454846 13.02081654 8.68228531 13 5 C8.71 4.34 4.42 3.68 0 3 C0 2.01 0 1.02 0 0 Z " fill="#232320" transform="translate(127,183)"/>
<path d="M0 0 C15.48247505 -1.10151996 15.48247505 -1.10151996 22.1328125 4.21875 C28.00736615 9.8229267 31.97818346 14.34493337 32.30078125 22.765625 C32.31533174 24.59369627 32.31890995 26.42188206 32.3125 28.25 C32.32861328 29.15363281 32.34472656 30.05726563 32.36132812 30.98828125 C32.36704512 38.93490441 31.17585755 46.3968609 25.625 52.4375 C25.06039062 53.07558594 24.49578125 53.71367187 23.9140625 54.37109375 C19.79344895 57.87781998 15.84919406 58.27490786 10.5625 58.25 C8.92474609 58.25773437 8.92474609 58.25773437 7.25390625 58.265625 C3.88298422 57.99044769 1.15124375 57.19775781 -2 56 C-2.09969985 42.72151351 -2.13525303 29.45645961 -1.5625 16.1875 C-1.52326416 15.24704834 -1.48402832 14.30659668 -1.44360352 13.33764648 C-1.22831042 8.81897089 -0.87531507 4.45013126 0 0 Z " fill="#E0E1E2" transform="translate(160,192)"/>
<path d="M0 0 C18.03030303 1.03030303 18.03030303 1.03030303 21 4 C21.29226684 6.91061817 21.52502546 9.80496113 21.71875 12.72265625 C21.78155151 13.61552841 21.84435303 14.50840057 21.90905762 15.42832947 C22.11034945 18.30610523 22.30518436 21.18427931 22.5 24.0625 C22.63110153 25.94599205 22.76260735 27.829456 22.89453125 29.71289062 C23.02366911 31.57029641 23.15257701 33.4277182 23.28125 35.28515625 C23.34455505 36.19853256 23.40786011 37.11190887 23.4730835 38.05296326 C23.76262923 42.29142757 24.03531453 46.52902203 24.25488281 50.77172852 C24.29432007 51.50246078 24.33375732 52.23319305 24.37438965 52.98606873 C24.47666253 54.92415966 24.57022967 56.86270462 24.66308594 58.80126953 C25.06175759 62.58633906 25.79612713 65.51795825 28.0625 68.59375 C31.66437495 71.20801408 35.90860625 71.68704555 40.234375 72.33203125 C41.14703125 72.55246094 42.0596875 72.77289063 43 73 C43.33 73.99 43.66 74.98 44 76 C34.12881197 76.2384985 24.40286503 75.91898908 14.5625 75.0625 C13.54986084 74.97564941 12.53722168 74.88879883 11.49389648 74.79931641 C4.26571561 74.1328578 4.26571561 74.1328578 2 73 C2.16081055 72.4332959 2.32162109 71.8665918 2.48730469 71.28271484 C6.15522533 54.95173484 2.49582951 35.31679527 1.06738281 18.77392578 C0.99847839 17.97312088 0.92957397 17.17231598 0.85858154 16.34724426 C0.72781279 14.84282173 0.59425763 13.33863764 0.45733643 11.83476257 C0.10801825 7.87581351 -0.06523032 3.97400174 0 0 Z " fill="#262521" transform="translate(351,242)"/>
<path d="M0 0 C3.96 0 7.92 0 12 0 C10.3563169 4.10920774 8.51181116 7.75927408 6.3125 11.5625 C2.10208284 18.94607674 -1.95480498 26.41017497 -5.97329712 33.89938354 C-6.65676435 35.17292863 -7.34114922 36.4459817 -8.02645874 37.71853638 C-8.99935433 39.52584767 -9.96893951 41.33489377 -10.9375 43.14453125 C-11.50339844 44.20003174 -12.06929688 45.25553223 -12.65234375 46.34301758 C-14.0813922 48.998985 -14.0813922 48.998985 -15 52 C-15.66 52 -16.32 52 -17 52 C-17.37511719 53.25876953 -17.37511719 53.25876953 -17.7578125 54.54296875 C-19.13722732 58.38190622 -20.87197168 61.77183099 -22.875 65.3125 C-23.21402344 65.94478516 -23.55304688 66.57707031 -23.90234375 67.22851562 C-26.47115789 71.78498634 -26.47115789 71.78498634 -29.2578125 72.91796875 C-30.12019531 72.95857422 -30.12019531 72.95857422 -31 73 C-35.73322573 63.89764283 -39.59495255 54.41759913 -43.5 44.9375 C-45.76890164 39.43892404 -48.28429962 34.07418845 -50.86328125 28.71484375 C-52 26 -52 26 -52 23 C-49.98337313 22.32071516 -47.96144639 21.65715509 -45.9375 21 C-44.81214844 20.62875 -43.68679688 20.2575 -42.52734375 19.875 C-38.88134316 18.97056575 -35.74053894 18.84751943 -32 19 C-30.68608882 22.27026822 -29.37411484 25.54131018 -28.0625 28.8125 C-27.68931641 29.74126953 -27.31613281 30.67003906 -26.93164062 31.62695312 C-26.57392578 32.51962891 -26.21621094 33.41230469 -25.84765625 34.33203125 C-25.51773682 35.15421143 -25.18781738 35.9763916 -24.84790039 36.82348633 C-24.18283658 38.53066857 -23.57937734 40.26186797 -23 42 C-15.20711661 28.06780216 -7.58243334 14.04770565 0 0 Z " fill="#242421" transform="translate(332,241)"/>
<path d="M0 0 C-3.17767724 1.85920044 -5.53235868 2.2145484 -9.1875 2.3125 C-16.86667639 2.83009155 -23.87098858 5.06979402 -31.15576172 7.40966797 C-32.64145445 7.88523125 -34.13419632 8.33874214 -35.62890625 8.78515625 C-41.31574118 10.534146 -46.61544273 13.04935869 -51.984375 15.59765625 C-55.52556315 17.24440048 -59.0034376 18.70880588 -62.75390625 19.8046875 C-66.27045414 21.14479059 -68.33953937 22.29430743 -71 25 C-72.92583134 29.89096484 -73.52680398 35.06945152 -74.21875 40.25 C-74.7834147 44.31750677 -75.78453254 47.47768718 -78 51 C-80.1875 52.25 -80.1875 52.25 -83 52 C-87.59495846 49.40747607 -91.03679016 45.97670014 -94.4375 42 C-96.84380566 39.47999805 -96.84380566 39.47999805 -100.15625 38.93359375 C-102.52752593 39.45738587 -104.70826004 40.1955671 -107 41 C-113.72977964 43.05755956 -119.92284624 43.30231563 -126.9375 43.25 C-127.97068359 43.25773437 -129.00386719 43.26546875 -130.06835938 43.2734375 C-136.35422037 43.25751385 -141.91880368 42.5979786 -148 41 C-148 40.67 -148 40.34 -148 40 C-147.30438965 39.9498877 -146.6087793 39.89977539 -145.89208984 39.84814453 C-142.71908498 39.61504522 -139.54709693 39.37013321 -136.375 39.125 C-135.28058594 39.04636719 -134.18617188 38.96773438 -133.05859375 38.88671875 C-127.73093871 38.46696411 -123.00119673 37.99485937 -118 36 C-116.62972847 35.55845654 -115.2570705 35.12428764 -113.8828125 34.6953125 C-100.85523807 30.45181642 -88.88238259 24.72965455 -76.73828125 18.421875 C-52.11642122 5.63677222 -28.37626259 -4.5956415 0 0 Z " fill="#F9F8F5" transform="translate(316,256)"/>
<path d="M0 0 C1.32 0 2.64 0 4 0 C8.76337071 10.8714388 13.52713468 21.7448006 18.125 32.6875 C18.56694702 33.71798462 18.56694702 33.71798462 19.01782227 34.76928711 C20.419879 38.14113331 21 40.27676391 21 44 C18.93847611 44.64894237 16.87573742 45.2940264 14.8125 45.9375 C13.08966797 46.47697266 13.08966797 46.47697266 11.33203125 47.02734375 C8.55646994 47.83756036 5.84312452 48.49134307 3 49 C2.67 48.34 2.34 47.68 2 47 C1.78601563 47.62390625 1.57203125 48.2478125 1.3515625 48.890625 C-0.53556697 51.83585597 -2.27476726 51.97087611 -5.625 52.75 C-6.62789063 52.99234375 -7.63078125 53.2346875 -8.6640625 53.484375 C-9.43492187 53.65453125 -10.20578125 53.8246875 -11 54 C-10.48174355 46.40486231 -9.13707088 39.07251634 -7.55810547 31.6328125 C-7.13207807 29.62306643 -6.7099398 27.61249554 -6.28955078 25.6015625 C-5.48953438 21.77500798 -4.68318302 17.94983753 -3.875 14.125 C-3.60921143 12.85736816 -3.34342285 11.58973633 -3.06958008 10.28369141 C-2.81716553 9.09952637 -2.56475098 7.91536133 -2.3046875 6.6953125 C-1.9641333 5.0868042 -1.9641333 5.0868042 -1.61669922 3.44580078 C-1 1 -1 1 0 0 Z " fill="#272623" transform="translate(264,183)"/>
<path d="M0 0 C-0.39251977 5.43330004 -0.86941018 10.74013479 -2.0625 16.0625 C-3.11023205 20.98605286 -3.65614411 25.98242743 -3 31 C-0.57869669 33.42130331 0.80111377 33.52840504 4.125 34.125 C5.03507812 34.29257812 5.94515625 34.46015625 6.8828125 34.6328125 C7.93082031 34.81457031 7.93082031 34.81457031 9 35 C9 35.99 9 36.98 9 38 C2.61331909 37.93265251 -3.77276629 37.84271245 -10.15893555 37.73754883 C-12.32845973 37.70443002 -14.49806738 37.67635807 -16.66772461 37.65356445 C-19.79837389 37.61977788 -22.92826726 37.56745022 -26.05859375 37.51171875 C-27.01833603 37.50532883 -27.97807831 37.4989389 -28.96690369 37.49235535 C-36.92805905 37.32111913 -44.48109057 36.07876835 -50.5625 30.5625 C-51.55443359 29.69818359 -51.55443359 29.69818359 -52.56640625 28.81640625 C-54 27 -54 27 -54 23 C-51.92289254 22.27361271 -49.83799688 21.56946592 -47.75 20.875 C-46.58984375 20.48054688 -45.4296875 20.08609375 -44.234375 19.6796875 C-41 19 -41 19 -38.82421875 19.63671875 C-36.67828552 21.24042474 -34.89812279 22.98556051 -33.0625 24.9375 C-29.01656677 29.13632133 -29.01656677 29.13632133 -24 32 C-22.32351969 31.72017389 -20.65380509 31.3921959 -19 31 C-17.47996294 26.418328 -16.12823928 22.01236051 -15.51953125 17.20703125 C-14.1874134 7.06090056 -14.1874134 7.06090056 -10.43359375 3.70703125 C-3.67992874 0 -3.67992874 0 0 0 Z " fill="#272623" transform="translate(257,275)"/>
<path d="M0 0 C2.475 0.495 2.475 0.495 5 1 C5.29071263 5.03402433 5.57521245 9.06843917 5.85449219 13.10327148 C5.94988045 14.46959627 6.04683004 15.83581315 6.14550781 17.2019043 C6.79063042 26.1513348 7.13788076 35.02721808 7 44 C5.94941406 43.73445313 4.89882813 43.46890625 3.81640625 43.1953125 C-3.43691597 41.36816609 -10.68511009 39.56747641 -18 38 C-18.72265625 36.40625 -18.72265625 36.40625 -19 34 C-17.90323944 31.69353335 -16.78116884 29.65329651 -15.4375 27.5 C-14.68735182 26.24904219 -13.93999502 24.99640665 -13.1953125 23.7421875 C-12.82180664 23.11538086 -12.44830078 22.48857422 -12.06347656 21.84277344 C-10.51798483 19.16477262 -9.16365443 16.40512404 -7.8125 13.625 C-5.48319763 8.86428885 -2.89963721 4.43473926 0 0 Z " fill="#292925" transform="translate(363,185)"/>
<path d="M0 0 C6.35583327 0.86670454 12.67551301 1.93034128 19 3 C19.05607422 4.22976563 19.05607422 4.22976563 19.11328125 5.484375 C19.21189453 7.10085938 19.21189453 7.10085938 19.3125 8.75 C19.37050781 9.81734375 19.42851562 10.8846875 19.48828125 11.984375 C20.04984588 15.29374822 20.55138369 16.72025378 23 19 C25.71413626 19.90987411 25.71413626 19.90987411 28.6875 20.25 C29.68136719 20.39953125 30.67523438 20.5490625 31.69921875 20.703125 C32.45847656 20.80109375 33.21773437 20.8990625 34 21 C34 21.99 34 22.98 34 24 C18.31697995 24.18895205 2.66973829 23.60528268 -13 23 C-13 22.01 -13 21.02 -13 20 C-12.38511719 19.93683594 -11.77023438 19.87367188 -11.13671875 19.80859375 C-8.60199868 19.42454525 -6.38702398 18.94124214 -4 18 C-0.32237552 12.59848905 -0.33553884 6.39837863 0 0 Z " fill="#262522" transform="translate(137,285)"/>
<path d="M0 0 C14.08913649 -0.45125348 14.08913649 -0.45125348 19.375 4 C21 6 21 6 21 8 C23.64 8 26.28 8 29 8 C27 9.33333333 25 10.66666667 23 12 C22.67 12.99 22.34 13.98 22 15 C16.65639091 16.16769751 11.38814954 16.42118162 5.9375 16.6875 C4.94427734 16.74744141 3.95105469 16.80738281 2.92773438 16.86914062 C1.97060547 16.91619141 1.01347656 16.96324219 0.02734375 17.01171875 C-0.84156494 17.05772217 -1.71047363 17.10372559 -2.60571289 17.15112305 C-5.361932 16.97715551 -6.71454833 16.54871129 -9 15 C-10.32 13.35 -11.64 11.7 -13 10 C-8.71 10 -4.42 10 0 10 C0 6.7 0 3.4 0 0 Z " fill="#DDDDDE" transform="translate(157,257)"/>
<path d="M0 0 C0.20384254 5.37722551 -0.47029057 9.98948892 -1.8125 15.1875 C-1.97814453 15.88552734 -2.14378906 16.58355469 -2.31445312 17.30273438 C-3.28182583 21.13937103 -4.33373876 24.04342952 -7 27 C-12.065089 26.5569893 -14.45490704 25.22450807 -18.125 21.75 C-18.95257813 20.98171875 -19.78015625 20.2134375 -20.6328125 19.421875 C-22.9396488 17.06174545 -24.98855848 14.61394705 -27 12 C-24.03 11.34 -21.06 10.68 -18 10 C-18 9.34 -18 8.68 -18 8 C-14.62902617 6.50178941 -12.79557881 6 -9 6 C-9 5.34 -9 4.68 -9 4 C-7.68872739 3.3309224 -6.3759455 2.66480194 -5.0625 2 C-4.33160156 1.62875 -3.60070312 1.2575 -2.84765625 0.875 C-1 0 -1 0 0 0 Z " fill="#DEDEDE" transform="translate(244,281)"/>
<path d="M0 0 C1.8125 2.5 1.8125 2.5 3 5 C-2.33931188 7.86034565 -7.07943568 9.73130765 -13 11 C-17 6.375 -17 6.375 -17 3 C-15.10614563 2.49255577 -13.20981334 1.99435426 -11.3125 1.5 C-9.72888672 1.08234375 -9.72888672 1.08234375 -8.11328125 0.65625 C-5.24821651 0.05232167 -2.90687946 -0.32753571 0 0 Z " fill="#2E2E2A" transform="translate(209,282)"/>
<path d="M0 0 C0.845625 0.309375 1.69125 0.61875 2.5625 0.9375 C6.0497854 2.01538821 9.38177535 2.56581304 13 3 C13 3.99 13 4.98 13 6 C7.06 6 1.12 6 -5 6 C-4.34 5.01 -3.68 4.02 -3 3 C-2.34 3 -1.68 3 -1 3 C-0.67 2.01 -0.34 1.02 0 0 Z " fill="#383632" transform="translate(158,303)"/>
<path d="M0 0 C2.5 0.75 2.5 0.75 5.5 2.75 C5.83 3.41 6.16 4.07 6.5 4.75 C7.49 5.41 8.48 6.07 9.5 6.75 C7.72880197 6.60866501 5.95804713 6.46176792 4.1875 6.3125 C3.20136719 6.23128906 2.21523437 6.15007812 1.19921875 6.06640625 C-1.5 5.75 -1.5 5.75 -4.5 4.75 C-4.83 3.76 -5.16 2.77 -5.5 1.75 C-2.5 -0.25 -2.5 -0.25 0 0 Z " fill="#F0F1F0" transform="translate(142.5,267.25)"/>
<path d="M0 0 C3.96 0 7.92 0 12 0 C11.34 1.65 10.68 3.3 10 5 C9.566875 4.525625 9.13375 4.05125 8.6875 3.5625 C6.97690387 1.76313043 6.97690387 1.76313043 4 1 C4 1.66 4 2.32 4 3 C1.66633067 5.01178391 -0.04785514 6.01595171 -3 7 C-1.125 2.25 -1.125 2.25 0 0 Z " fill="#393835" transform="translate(332,241)"/>
<path d="M0 0 C1.67542976 0.28604898 3.34385343 0.61781233 5 1 C5.33 1.99 5.66 2.98 6 4 C2.77208445 6.1519437 1.71599191 6.20086443 -2 6 C-1.125 1.125 -1.125 1.125 0 0 Z " fill="#272822" transform="translate(206,283)"/>
<path d="M0 0 C-1.2065625 1.175625 -1.2065625 1.175625 -2.4375 2.375 C-4.98690417 4.71982856 -4.98690417 4.71982856 -6 7 C-6.99 7 -7.98 7 -9 7 C-8.67 5.68 -8.34 4.36 -8 3 C-9.32 2.67 -10.64 2.34 -12 2 C-7.8803623 0.70756464 -4.33168317 -0.26252625 0 0 Z " fill="#5B5C58" transform="translate(209,282)"/>
<path d="M0 0 C-0.33 6.27 -0.66 12.54 -1 19 C-1.33 19 -1.66 19 -2 19 C-2.33 13.06 -2.66 7.12 -3 1 C-3.99 0.67 -4.98 0.34 -6 0 C-3 -1 -3 -1 0 0 Z " fill="#464541" transform="translate(143,187)"/>
<path d="M0 0 C3.63 0 7.26 0 11 0 C9.02 0.99 9.02 0.99 7 2 C7.99 2.66 8.98 3.32 10 4 C6.7 3.67 3.4 3.34 0 3 C0 2.01 0 1.02 0 0 Z " fill="#42403B" transform="translate(127,183)"/>
<path d="M0 0 C0.33 0 0.66 0 1 0 C1 2.97 1 5.94 1 9 C-3.29 9 -7.58 9 -12 9 C-12 8.67 -12 8.34 -12 8 C-10.37681021 7.63762737 -8.7513642 7.28534843 -7.125 6.9375 C-6.22007812 6.74027344 -5.31515625 6.54304688 -4.3828125 6.33984375 C-2 6 -2 6 0 7 C0 4.69 0 2.38 0 0 Z " fill="#464743" transform="translate(156,258)"/>
<path d="M0 0 C-0.33 3.63 -0.66 7.26 -1 11 C-1.33 11 -1.66 11 -2 11 C-2.28875 9.88625 -2.5775 8.7725 -2.875 7.625 C-3.69241329 3.99708908 -3.69241329 3.99708908 -6 2 C-2.25 0 -2.25 0 0 0 Z " fill="#3F403D" transform="translate(257,275)"/>
<path d="M0 0 C0.556875 0.226875 1.11375 0.45375 1.6875 0.6875 C1.6875 1.3475 1.6875 2.0075 1.6875 2.6875 C-1.2825 3.3475 -4.2525 4.0075 -7.3125 4.6875 C-7.3125 4.0275 -7.3125 3.3675 -7.3125 2.6875 C-3.15982824 -0.42700382 -3.15982824 -0.42700382 0 0 Z " fill="#373735" transform="translate(194.3125,259.3125)"/>
<path d="M0 0 C0 0.66 0 1.32 0 2 C-3.57644848 3.2380014 -6.33694766 2.74926071 -10 2 C-6.64608848 -1.35391152 -4.35183427 -1.05855428 0 0 Z " fill="#E1E0DD" transform="translate(374,242)"/>
<path d="M0 0 C0.66 0.33 1.32 0.66 2 1 C2 1.66 2 2.32 2 3 C2.66 3.33 3.32 3.66 4 4 C-0.43076923 7.07692308 -0.43076923 7.07692308 -3.3125 6.6875 C-3.869375 6.460625 -4.42625 6.23375 -5 6 C-3.68 5.67 -2.36 5.34 -1 5 C-0.67 3.35 -0.34 1.7 0 0 Z " fill="#C9C8C7" transform="translate(265,229)"/>
<path d="M0 0 C0.99 0.33 1.98 0.66 3 1 C3 2.65 3 4.3 3 6 C2.01 6 1.02 6 0 6 C-0.66 4.35 -1.32 2.7 -2 1 C-1.34 0.67 -0.68 0.34 0 0 Z " fill="#D4D5D3" transform="translate(211,281)"/>
<path d="M0 0 C0.66 0.33 1.32 0.66 2 1 C2 1.99 2 2.98 2 4 C2.33 4.99 2.66 5.98 3 7 C2.01 7 1.02 7 0 7 C-0.66 5.35 -1.32 3.7 -2 2 C-1.34 1.34 -0.68 0.68 0 0 Z M3 5 C5 6 5 6 5 6 Z " fill="#CECECD" transform="translate(192,249)"/>
<path d="M0 0 C2.5 1.1875 2.5 1.1875 5 3 C5.3125 5.6875 5.3125 5.6875 5 8 C2.20127563 5.47211993 0.54226981 3.79588866 0 0 Z " fill="#D2D2D1" transform="translate(376,304)"/>
</svg>
